#!OML:ASF I:\golf\golf\golf 2\Subject 1\2002-09-07\Subject1.ASF
:FULLY-SPECIFIED
:DEGREES
194
root -7.31309 17.5827 2.26842 -8.34062 80.873 -22.9546
lowerback 3.50418 3.09401 -6.31692
upperback 3.03431 4.02258 3.42901
thorax 0.505185 1.92931 6.9811
lowerneck -14.2381 -0.213294 0.0266832
upperneck 40.8006 3.58367 -4.0616
head 17.5123 1.50733 -1.01245
rclavicle 2.04748e-014 4.85035e-014
rhumerus -8.38955 -3.24442 -105.156
rradius 30.7183
rwrist -51.2068
rhand -29.0427 -10.9929
rfingers 7.12502
rthumb -2.39294 -40.9592
lclavicle 2.04748e-014 4.85035e-014
lhumerus 2.73298 -70.2385 93.2496
lradius 24.1576
lwrist 35.9054
lhand 11.4451 66.6583
lfingers 7.12502
lthumb -143.504 87.1485
rfemur -33.8198 1.74563 11.2227
rtibia 34.7711
rfoot -11.0119 -2.25511
rtoes -2.38314
lfemur -26.1526 12.0233 -7.26896
ltibia 32.5766
lfoot -13.2406 1.77764
ltoes -26.3047
195
root -7.32363 17.5848 2.29881 -8.20561 80.0344 -22.8806
lowerback 3.47889 3.02796 -6.56245
upperback 3.0548 3.92909 3.39354
thorax 0.544134 1.87646 7.09125
lowerneck -14.2416 0.114289 0.0234256
upperneck 40.695 4.04502 -4.03937
head 17.4707 1.68511 -0.918296
rclavicle -9.93923e-015 2.5842e-014
rhumerus -8.37144 -3.4893 -105.165
rradius 31.065
rwrist -51.3598
rhand -30.4714 -11.1089
rfingers 7.12502
rthumb -3.77266 -41.0553
lclavicle -9.93923e-015 2.5842e-014
lhumerus 4.16114 -71.452 91.6631
lradius 24.3917
lwrist 36.4354
lhand 11.9514 65.5043
lfingers 7.12502
lthumb -143.025 88.4247
rfemur -34.0895 1.98056 11.6623
rtibia 34.7016
rfoot -10.9249 -1.58851
rtoes -2.18812
lfemur -25.909 12.2553 -6.86552
ltibia 32.5018
lfoot -13.1303 2.46474
ltoes -27.2107
196
root -7.33329 17.5884 2.32992 -7.97923 79.166 -22.6814
lowerback 3.50229 2.9398 -6.80928
upperback 3.08269 3.80314 3.31713
thorax 0.572584 1.80744 7.15795
lowerneck -14.1952 0.473138 0.0931455
upperneck 40.4575 4.51708 -4.0556
head 17.3441 1.87182 -0.853257
rclavicle 4.67144e-015 1.49089e-014
rhumerus -8.41701 -3.34508 -105.129
rradius 31.565
rwrist -52.081
rhand -31.9708 -11.2584
rfingers 7.12502
rthumb -5.22056 -41.174
lclavicle 4.67144e-015 1.49089e-014
lhumerus 5.58771 -72.3593 90.0745
lradius 24.5902
lwrist 36.5884
lhand 11.8817 64.6397
lfingers 7.12502
lthumb -143.091 89.2723
rfemur -34.2837 2.34571 12.0377
rtibia 34.5945
rfoot -10.8417 -0.916038
rtoes -0.759255
lfemur -25.5903 12.489 -6.46873
ltibia 32.4289
lfoot -13.0609 3.17248
ltoes -28.0404
197
root -7.34349 17.594 2.36025 -7.69989 78.2956 -22.4585
lowerback 3.54508 2.892 -6.98763
upperback 3.07624 3.7294 3.1559
thorax 0.554992 1.76841 7.09022
lowerneck -14.1323 0.814044 0.355874
upperneck 40.2071 4.93264 -4.15826
head 17.214 2.05538 -0.873206
rclavicle 8.74653e-015 4.57205e-015
rhumerus -8.49087 -3.27021 -105.013
rradius 32.1635
rwrist -52.524
rhand -32.1363 -11.8032
rfingers 7.12502
rthumb -5.38038 -41.7149
lclavicle 8.74653e-015 4.57205e-015
lhumerus 7.24372 -73.5415 88.2846
lradius 24.7883
lwrist 36.8718
lhand 12.2809 64.1941
lfingers 7.12502
lthumb -142.714 89.816
rfemur -34.5061 2.66261 12.3932
rtibia 34.4832
rfoot -10.7343 -0.111155
rtoes 0.630268
lfemur -25.2527 12.5965 -6.06684
ltibia 32.3535
lfoot -12.9486 3.95477
ltoes -28.2653
198
root -7.3545 17.5955 2.39116 -7.48327 77.4201 -22.3481
lowerback 3.55012 2.81414 -7.1954
upperback 3.04322 3.61637 3.00107
thorax 0.535743 1.71006 7.0494
lowerneck -14.0905 1.17089 0.636407
upperneck 40.0165 5.38068 -4.2676
head 17.1288 2.25416 -0.893669
rclavicle -4.33599e-015 7.82715e-015
rhumerus -8.61925 -3.02839 -104.938
rradius 32.8374
rwrist -53.2965
rhand -33.1004 -12.0177
rfingers 7.12502
rthumb -6.31111 -41.9037
lclavicle -4.33599e-015 7.82715e-015
lhumerus 9.30805 -74.9178 86.0875
lradius 25.0298
lwrist 37.5559
lhand 12.4708 63.152
lfingers 7.12502
lthumb -142.534 269.095
rfemur -34.8215 2.75861 12.8443
rtibia 34.4121
rfoot -10.6397 0.828796
rtoes 0.861534
lfemur -24.993 12.6493 -5.6263
ltibia 32.2532
lfoot -12.7617 4.68644
ltoes -27.9955
199
root -7.36492 17.5887 2.42273 -7.3624 76.4907 -22.3057
lowerback 3.54515 2.65403 -7.43034
upperback 3.03198 3.39473 2.85742
thorax 0.562192 1.59442 7.04295
lowerneck -14.0637 1.62492 0.919459
upperneck 39.8198 5.96619 -4.36353
head 17.0536 2.50866 -0.883674
rclavicle -3.13583e-014 -1.6201e-014
rhumerus -8.69253 -2.99288 -104.997
rradius 33.3367
rwrist -53.6977
rhand -33.9113 -12.5468
rfingers 7.12502
rthumb -7.09391 -42.4079
lclavicle -3.13583e-014 -1.6201e-014
lhumerus 11.5117 -76.0388 83.5813
lradius 25.4238
lwrist 38.037
lhand 12.6784 62.6403
lfingers 7.12502
lthumb -142.338 268.531
rfemur -35.1536 2.80289 13.3801
rtibia 34.4226
rfoot -10.6019 1.64894
rtoes -0.216401
lfemur -24.6635 12.9615 -5.17984
ltibia 32.0939
lfoot -12.5848 5.24056
ltoes -28.1292
200
root -7.37352 17.5776 2.45465 -7.23986 75.4942 -22.1924
lowerback 3.58888 2.51278 -7.64018
upperback 3.02562 3.19552 2.66224
thorax 0.567126 1.49155 6.9639
lowerneck -14.0111 2.09167 1.25596
upperneck 39.6499 6.54465 -4.42315
head 16.9898 2.77429 -0.868662
rclavicle -1.55052e-014 -1.45113e-014
rhumerus -8.77137 -3.1374 -105.06
rradius 33.9034
rwrist -54.1444
rhand -34.0676 -13.5207
rfingers 7.12502
rthumb -7.24482 -43.3766
lclavicle -1.55052e-014 -1.45113e-014
lhumerus 13.7244 -76.9278 81.0662
lradius 25.703
lwrist 37.9759
lhand 13.51 62.975
lfingers 7.12502
lthumb -141.553 268.651
rfemur -35.3706 2.94119 13.9127
rtibia 34.3793
rfoot -10.6004 2.3504
rtoes -1.75483
lfemur -24.2313 13.3858 -4.72864
ltibia 32.0597
lfoot -12.5873 5.88843
ltoes -30.0432
201
root -7.3819 17.5606 2.48994 -7.10197 74.493 -22.0858
lowerback 3.54596 2.37763 -7.89754
upperback 3.04135 3.01102 2.48357
thorax 0.638308 1.39185 6.93314
lowerneck -13.9624 2.51625 1.5308
upperneck 39.4897 7.07826 -4.47556
head 16.931 3.01383 -0.847408
rclavicle 3.97569e-015 -2.94201e-014
rhumerus -8.91393 -2.8992 -104.924
rradius 34.6989
rwrist -55.1563
rhand -34.2726 -14.0031
rfingers 7.12502
rthumb -7.44272 -43.8521
lclavicle 3.97569e-015 -2.94201e-014
lhumerus 16.6642 -77.8186 78.0163
lradius 25.8438
lwrist 37.9781
lhand 13.5798 62.6844
lfingers 7.12502
lthumb -141.487 268.342
rfemur -35.6033 3.17113 14.4127
rtibia 34.3465
rfoot -10.6503 3.07689
rtoes -2.78471
lfemur -23.8089 13.6857 -4.24785
ltibia 32.0524
lfoot -12.553 6.87267
ltoes -33.4032
202
root -7.39073 17.5727 2.52734 -7.12357 73.5005 -22.2094
lowerback 3.38307 2.18302 -8.13757
upperback 3.06657 2.75865 2.35509
thorax 0.797759 1.25371 6.95337
lowerneck -13.8453 2.97543 1.80213
upperneck 39.2451 7.68752 -4.61366
head 16.8221 3.27418 -0.851195
rclavicle 7.95139e-016 -1.43125e-014
rhumerus -9.0339 -2.61363 -104.767
rradius 35.4452
rwrist -56.0511
rhand -35.2908 -13.8461
rfingers 7.12502
rthumb -8.42544 -43.658
lclavicle 7.95139e-016 -1.43125e-014
lhumerus 19.8785 -78.4688 74.7162
lradius 26.1991
lwrist 37.8909
lhand 13.5261 62.5612
lfingers 7.12502
lthumb -141.537 268.233
rfemur -35.7993 3.47617 14.9577
rtibia 34.2281
rfoot -10.5488 3.78491
rtoes -2.73101
lfemur -23.1303 13.787 -3.57412
ltibia 32.1048
lfoot -13.4034 6.61352
ltoes -28.6135
203
root -7.39805 17.5696 2.56332 -6.79869 72.5424 -21.9546
lowerback 3.29809 1.95341 -8.4257
upperback 3.04589 2.45141 2.20628
thorax 0.875943 1.09243 6.97619
lowerneck -13.6478 3.47385 1.9171
upperneck 38.965 8.37747 -4.68723
head 16.6705 3.55722 -0.786055
rclavicle 7.95139e-016 3.33958e-014
rhumerus -9.23815 -2.47685 -104.684
rradius 36.2288
rwrist -56.7543
rhand -37.5651 -13.1386
rfingers 7.12502
rthumb -10.6197 -42.8502
lclavicle 7.95139e-016 3.33958e-014
lhumerus 20.7454 -78.2055 74.1585
lradius 26.1085
lwrist 36.6552
lhand 14.6445 60.5469
lfingers 7.12502
lthumb -140.483 265.917
rfemur -35.9549 3.72234 15.3615
rtibia 34.0655
rfoot -10.3268 4.52727
rtoes -1.65215
lfemur -22.65 14.2158 -3.17982
ltibia 32.147
lfoot -13.4844 6.90335
ltoes -28.3873
204
root -7.40475 17.5655 2.59651 -6.35313 71.5684 -21.55
lowerback 3.22308 1.71705 -8.67873
upperback 3.07655 2.13875 2.05944
thorax 1.0058 0.925089 6.98057
lowerneck -13.6431 3.96541 1.73513
upperneck 38.7358 9.07551 -4.57818
head 16.5667 3.81861 -0.583219
rclavicle -6.20208e-014 8.74653e-015
rhumerus -9.42048 -2.17424 -104.437
rradius 37.1982
rwrist -57.5783
rhand -38.4558 -13.0468
rfingers 7.12502
rthumb -11.4789 -42.7126
lclavicle -6.20208e-014 8.74653e-015
lhumerus 22.7306 -78.0667 72.6285
lradius 25.9592
lwrist 35.4408
lhand 15.3415 61.0036
lfingers 7.12502
lthumb -139.827 266.177
rfemur -36.0477 3.86165 15.7452
rtibia 33.8052
rfoot -10.1402 5.41499
rtoes -0.58115
lfemur -22.3254 14.4318 -2.78933
ltibia 32.2642
lfoot -13.426 7.35565
ltoes -28.1968
205
root -7.41091 17.5703 2.62936 -6.36094 70.5191 -21.6026
lowerback 3.06721 1.46042 -8.85624
upperback 3.18654 1.81294 1.96148
thorax 1.2682 0.743067 6.99598
lowerneck -13.7502 4.50182 1.70031
upperneck 38.5137 9.84446 -4.5974
head 16.5161 4.10915 -0.446807
rclavicle -3.26007e-014 -1.66979e-014
rhumerus -9.51443 -1.78582 -104.069
rradius 38.2777
rwrist -58.3676
rhand -39.7695 -12.9199
rfingers 7.12502
rthumb -12.7455 -42.5109
lclavicle -3.26007e-014 -1.66979e-014
lhumerus 25.2219 -77.8285 70.5495
lradius 25.7811
lwrist 33.9483
lhand 16.0354 61.0372
lfingers 7.12502
lthumb -139.175 266.009
rfemur -36.1165 3.97251 16.3436
rtibia 33.5747
rfoot -10.0134 6.38955
rtoes 0.166916
lfemur -22.047 14.7697 -2.27672
ltibia 32.3044
lfoot -13.2206 7.84431
ltoes -27.5587
206
root -7.41675 17.5746 2.6662 -6.49709 69.4532 -21.7723
lowerback 2.94995 1.22647 -9.08254
upperback 3.21863 1.51044 1.80913
thorax 1.4245 0.579618 6.9758
lowerneck -13.5817 5.04025 2.15999
upperneck 38.211 10.5739 -4.90324
head 16.4123 4.42885 -0.53657
rclavicle -3.57812e-015 -4.77083e-015
rhumerus -9.74789 -1.64137 -103.798
rradius 39.4579
rwrist -59.1777
rhand -40.9786 -12.8379
rfingers 7.12502
rthumb -13.911 -42.3526
lclavicle -3.57812e-015 -4.77083e-015
lhumerus 27.7516 -77.904 68.2063
lradius 25.7442
lwrist 32.667
lhand 16.4337 59.1749
lfingers 7.12502
lthumb -138.801 264.028
rfemur -36.1468 4.15643 17.0013
rtibia 33.3458
rfoot -9.88482 7.27817
rtoes 0.703893
lfemur -21.68 15.2702 -1.75379
ltibia 32.3494
lfoot -13.0137 8.43912
ltoes -28.1014
207
root -7.42164 17.5762 2.70457 -6.67196 68.3676 -22.0086
lowerback 2.83608 1.01119 -9.2005
upperback 3.2023 1.23294 1.60903
thorax 1.52596 0.435527 6.83958
lowerneck -13.2868 5.53576 2.64266
upperneck 37.8481 11.2026 -5.16012
head 16.2455 4.7237 -0.631564
rclavicle -5.28767e-014 9.54166e-015
rhumerus -10.0328 -1.51693 -103.575
rradius 40.658
rwrist -60.0499
rhand -41.9946 -12.3837
rfingers 7.12502
rthumb -14.89 -41.8285
lclavicle -5.28767e-014 9.54166e-015
lhumerus 30.5854 -78.1466 65.5276
lradius 25.7751
lwrist 31.6312
lhand 16.505 56.9172
lfingers 7.12502
lthumb -138.734 261.748
rfemur -36.1979 4.42553 17.692
rtibia 33.1449
rfoot -9.84314 7.96869
rtoes 0.707422
lfemur -21.1976 15.6339 -1.12045
ltibia 32.4562
lfoot -13.0679 8.83125
ltoes -27.4689
208
root -7.42385 17.5739 2.74293 -6.6728 67.3082 -22.0152
lowerback 2.73472 0.817645 -9.34246
upperback 3.21679 0.986075 1.38235
thorax 1.64659 0.305039 6.68693
lowerneck -13.1146 6.00158 2.96715
upperneck 37.5633 11.7819 -5.25644
head 16.1264 4.99222 -0.634043
rclavicle 2.0276e-014 3.33958e-014
rhumerus -10.2885 -1.26208 -103.261
rradius 41.9009
rwrist -61.0351
rhand -42.9999 -11.7201
rfingers 7.12502
rthumb -15.8582 -41.0906
lclavicle 2.0276e-014 3.33958e-014
lhumerus 34.0831 -78.3873 62.2936
lradius 25.7893
lwrist 30.5984
lhand 16.6972 55.9813
lfingers 7.12502
lthumb -138.553 260.754
rfemur -36.2162 4.61256 18.3212
rtibia 33.0264
rfoot -9.8778 8.61932
rtoes 0.232933
lfemur -20.7838 16.2553 -0.703918
ltibia 32.5869
lfoot -12.676 9.56457
ltoes -29.0591
